# xmcd
#
# Track frame offsets:
#	150
#	19737
#	35675
#
# Disc length: 739 seconds
#
# Revision: 0
# Processed by: cddbd v1.5.1PL0 Copyright (c) Steve Scherf et al.
# Submitted via: audiograbber 1.83.01
#
DISCID=1d02e103
DTITLE=K.D. Lang - Maxi
DYEAR=1991
DGENRE=
TTITLE0=Barefoot (Rhythmic Version)
TTITLE1=Barefoot (Acoustic Version)
TTITLE2=Pullin' Back The Reins
EXTD=
EXTT0=
EXTT1=
EXTT2=
PLAYORDER=
